<mxfile host="app.diagrams.net" agent="Mozilla/5.0 (Windows NT 10.0; Win64; x64) AppleWebKit/537.36 (KHTML, like Gecko) Chrome/127.0.0.0 Safari/537.36" version="24.7.6">
  <diagram name="PÃ¡gina-1" id="sW_nWWyt4MHFv7BtaOHq">
    <mxGraphModel dx="1050" dy="557" grid="1" gridSize="10" guides="1" tooltips="1" connect="1" arrows="1" fold="1" page="1" pageScale="1" pageWidth="827" pageHeight="1169" math="0" shadow="0">
      <root>
        <mxCell id="0" />
        <mxCell id="1" parent="0" />
        <mxCell id="uR4-ij2WGQmLYF7duBXZ-1" value="Sorteo" style="rounded=0;whiteSpace=wrap;html=1;shadow=1;" vertex="1" parent="1">
          <mxGeometry x="630" y="230" width="120" height="40" as="geometry" />
        </mxCell>
        <mxCell id="uR4-ij2WGQmLYF7duBXZ-37" style="edgeStyle=orthogonalEdgeStyle;rounded=0;orthogonalLoop=1;jettySize=auto;html=1;entryX=0.5;entryY=1;entryDx=0;entryDy=0;endArrow=none;endFill=0;" edge="1" parent="1" source="uR4-ij2WGQmLYF7duBXZ-2" target="uR4-ij2WGQmLYF7duBXZ-33">
          <mxGeometry relative="1" as="geometry" />
        </mxCell>
        <mxCell id="uR4-ij2WGQmLYF7duBXZ-2" value="Apuesta" style="rounded=0;whiteSpace=wrap;html=1;" vertex="1" parent="1">
          <mxGeometry x="390" y="295" width="120" height="60" as="geometry" />
        </mxCell>
        <mxCell id="uR4-ij2WGQmLYF7duBXZ-5" style="edgeStyle=orthogonalEdgeStyle;rounded=0;orthogonalLoop=1;jettySize=auto;html=1;endArrow=none;endFill=0;" edge="1" parent="1" source="uR4-ij2WGQmLYF7duBXZ-3" target="uR4-ij2WGQmLYF7duBXZ-2">
          <mxGeometry relative="1" as="geometry" />
        </mxCell>
        <mxCell id="uR4-ij2WGQmLYF7duBXZ-3" value="TipoApuesta" style="rounded=0;whiteSpace=wrap;html=1;" vertex="1" parent="1">
          <mxGeometry x="40" y="295" width="120" height="60" as="geometry" />
        </mxCell>
        <mxCell id="uR4-ij2WGQmLYF7duBXZ-32" style="edgeStyle=orthogonalEdgeStyle;rounded=0;orthogonalLoop=1;jettySize=auto;html=1;" edge="1" parent="1" source="uR4-ij2WGQmLYF7duBXZ-20">
          <mxGeometry relative="1" as="geometry">
            <mxPoint x="310" y="310" as="targetPoint" />
          </mxGeometry>
        </mxCell>
        <mxCell id="uR4-ij2WGQmLYF7duBXZ-20" value="pueden existir" style="text;html=1;align=center;verticalAlign=middle;whiteSpace=wrap;rounded=0;" vertex="1" parent="1">
          <mxGeometry x="210" y="295" width="80" height="30" as="geometry" />
        </mxCell>
        <mxCell id="uR4-ij2WGQmLYF7duBXZ-26" value="0..*" style="text;html=1;align=center;verticalAlign=middle;whiteSpace=wrap;rounded=0;" vertex="1" parent="1">
          <mxGeometry x="340" y="295" width="60" height="30" as="geometry" />
        </mxCell>
        <mxCell id="uR4-ij2WGQmLYF7duBXZ-27" value="1..1" style="text;html=1;align=center;verticalAlign=middle;whiteSpace=wrap;rounded=0;" vertex="1" parent="1">
          <mxGeometry x="160" y="325" width="60" height="30" as="geometry" />
        </mxCell>
        <mxCell id="uR4-ij2WGQmLYF7duBXZ-29" style="edgeStyle=orthogonalEdgeStyle;rounded=0;orthogonalLoop=1;jettySize=auto;html=1;entryX=1;entryY=0.5;entryDx=0;entryDy=0;" edge="1" parent="1" source="uR4-ij2WGQmLYF7duBXZ-28" target="uR4-ij2WGQmLYF7duBXZ-27">
          <mxGeometry relative="1" as="geometry" />
        </mxCell>
        <mxCell id="uR4-ij2WGQmLYF7duBXZ-28" value="es" style="text;html=1;align=center;verticalAlign=middle;whiteSpace=wrap;rounded=0;" vertex="1" parent="1">
          <mxGeometry x="250" y="325" width="60" height="30" as="geometry" />
        </mxCell>
        <mxCell id="uR4-ij2WGQmLYF7duBXZ-33" value="ConfiguracionApuesta" style="rounded=0;whiteSpace=wrap;html=1;" vertex="1" parent="1">
          <mxGeometry x="380" y="40" width="140" height="60" as="geometry" />
        </mxCell>
        <mxCell id="uR4-ij2WGQmLYF7duBXZ-39" style="edgeStyle=orthogonalEdgeStyle;rounded=0;orthogonalLoop=1;jettySize=auto;html=1;" edge="1" parent="1" source="uR4-ij2WGQmLYF7duBXZ-38">
          <mxGeometry relative="1" as="geometry">
            <mxPoint x="430" y="140" as="targetPoint" />
          </mxGeometry>
        </mxCell>
        <mxCell id="uR4-ij2WGQmLYF7duBXZ-38" value="Tiene" style="text;html=1;align=center;verticalAlign=middle;whiteSpace=wrap;rounded=0;rotation=-90;" vertex="1" parent="1">
          <mxGeometry x="405" y="172" width="50" height="30" as="geometry" />
        </mxCell>
        <mxCell id="uR4-ij2WGQmLYF7duBXZ-40" value="1..*" style="text;html=1;align=center;verticalAlign=middle;whiteSpace=wrap;rounded=0;" vertex="1" parent="1">
          <mxGeometry x="390" y="100" width="60" height="30" as="geometry" />
        </mxCell>
        <mxCell id="uR4-ij2WGQmLYF7duBXZ-42" style="edgeStyle=orthogonalEdgeStyle;rounded=0;orthogonalLoop=1;jettySize=auto;html=1;" edge="1" parent="1" source="uR4-ij2WGQmLYF7duBXZ-41">
          <mxGeometry relative="1" as="geometry">
            <mxPoint x="470" y="240" as="targetPoint" />
          </mxGeometry>
        </mxCell>
        <mxCell id="uR4-ij2WGQmLYF7duBXZ-41" value="Pertenece" style="text;html=1;align=center;verticalAlign=middle;whiteSpace=wrap;rounded=0;rotation=90;" vertex="1" parent="1">
          <mxGeometry x="440" y="172" width="60" height="30" as="geometry" />
        </mxCell>
        <mxCell id="uR4-ij2WGQmLYF7duBXZ-43" value="1..1" style="text;html=1;align=center;verticalAlign=middle;whiteSpace=wrap;rounded=0;" vertex="1" parent="1">
          <mxGeometry x="450" y="265" width="60" height="30" as="geometry" />
        </mxCell>
        <mxCell id="uR4-ij2WGQmLYF7duBXZ-48" style="edgeStyle=orthogonalEdgeStyle;rounded=0;orthogonalLoop=1;jettySize=auto;html=1;entryX=0;entryY=0.5;entryDx=0;entryDy=0;endArrow=none;endFill=0;" edge="1" parent="1" target="uR4-ij2WGQmLYF7duBXZ-33">
          <mxGeometry relative="1" as="geometry">
            <mxPoint x="175" y="70" as="sourcePoint" />
          </mxGeometry>
        </mxCell>
        <mxCell id="uR4-ij2WGQmLYF7duBXZ-57" style="edgeStyle=orthogonalEdgeStyle;rounded=0;orthogonalLoop=1;jettySize=auto;html=1;endArrow=none;endFill=0;" edge="1" parent="1" source="uR4-ij2WGQmLYF7duBXZ-44" target="uR4-ij2WGQmLYF7duBXZ-3">
          <mxGeometry relative="1" as="geometry" />
        </mxCell>
        <mxCell id="uR4-ij2WGQmLYF7duBXZ-44" value="TipoConfiguracionApuesta" style="rounded=0;whiteSpace=wrap;html=1;" vertex="1" parent="1">
          <mxGeometry x="25" y="40" width="150" height="60" as="geometry" />
        </mxCell>
        <mxCell id="uR4-ij2WGQmLYF7duBXZ-54" style="edgeStyle=orthogonalEdgeStyle;rounded=0;orthogonalLoop=1;jettySize=auto;html=1;" edge="1" parent="1" source="uR4-ij2WGQmLYF7duBXZ-45">
          <mxGeometry relative="1" as="geometry">
            <mxPoint x="320" y="55" as="targetPoint" />
          </mxGeometry>
        </mxCell>
        <mxCell id="uR4-ij2WGQmLYF7duBXZ-45" value="pueden existir" style="text;html=1;align=center;verticalAlign=middle;whiteSpace=wrap;rounded=0;" vertex="1" parent="1">
          <mxGeometry x="220" y="40" width="80" height="30" as="geometry" />
        </mxCell>
        <mxCell id="uR4-ij2WGQmLYF7duBXZ-49" style="edgeStyle=orthogonalEdgeStyle;rounded=0;orthogonalLoop=1;jettySize=auto;html=1;" edge="1" parent="1" source="uR4-ij2WGQmLYF7duBXZ-46">
          <mxGeometry relative="1" as="geometry">
            <mxPoint x="240" y="85" as="targetPoint" />
          </mxGeometry>
        </mxCell>
        <mxCell id="uR4-ij2WGQmLYF7duBXZ-46" value="es" style="text;html=1;align=center;verticalAlign=middle;whiteSpace=wrap;rounded=0;" vertex="1" parent="1">
          <mxGeometry x="260" y="70" width="60" height="30" as="geometry" />
        </mxCell>
        <mxCell id="uR4-ij2WGQmLYF7duBXZ-55" value="1..1" style="text;html=1;align=center;verticalAlign=middle;whiteSpace=wrap;rounded=0;" vertex="1" parent="1">
          <mxGeometry x="190" y="70" width="60" height="30" as="geometry" />
        </mxCell>
        <mxCell id="uR4-ij2WGQmLYF7duBXZ-56" value="0..*" style="text;html=1;align=center;verticalAlign=middle;whiteSpace=wrap;rounded=0;" vertex="1" parent="1">
          <mxGeometry x="320" y="40" width="60" height="30" as="geometry" />
        </mxCell>
        <mxCell id="uR4-ij2WGQmLYF7duBXZ-58" value="1..*" style="text;html=1;align=center;verticalAlign=middle;whiteSpace=wrap;rounded=0;" vertex="1" parent="1">
          <mxGeometry x="40" y="100" width="60" height="30" as="geometry" />
        </mxCell>
        <mxCell id="uR4-ij2WGQmLYF7duBXZ-59" value="1..1" style="text;html=1;align=center;verticalAlign=middle;whiteSpace=wrap;rounded=0;rotation=90;" vertex="1" parent="1">
          <mxGeometry x="100" y="265" width="60" height="30" as="geometry" />
        </mxCell>
        <mxCell id="uR4-ij2WGQmLYF7duBXZ-62" style="edgeStyle=orthogonalEdgeStyle;rounded=0;orthogonalLoop=1;jettySize=auto;html=1;" edge="1" parent="1" source="uR4-ij2WGQmLYF7duBXZ-60">
          <mxGeometry relative="1" as="geometry">
            <mxPoint x="77.5" y="140" as="targetPoint" />
          </mxGeometry>
        </mxCell>
        <mxCell id="uR4-ij2WGQmLYF7duBXZ-60" value="Tiene" style="text;html=1;align=center;verticalAlign=middle;whiteSpace=wrap;rounded=0;rotation=-90;" vertex="1" parent="1">
          <mxGeometry x="52.5" y="172" width="50" height="30" as="geometry" />
        </mxCell>
        <mxCell id="uR4-ij2WGQmLYF7duBXZ-63" style="edgeStyle=orthogonalEdgeStyle;rounded=0;orthogonalLoop=1;jettySize=auto;html=1;" edge="1" parent="1" source="uR4-ij2WGQmLYF7duBXZ-61">
          <mxGeometry relative="1" as="geometry">
            <mxPoint x="117.5" y="240" as="targetPoint" />
          </mxGeometry>
        </mxCell>
        <mxCell id="uR4-ij2WGQmLYF7duBXZ-61" value="Pertenece" style="text;html=1;align=center;verticalAlign=middle;whiteSpace=wrap;rounded=0;rotation=90;" vertex="1" parent="1">
          <mxGeometry x="87.5" y="172" width="60" height="30" as="geometry" />
        </mxCell>
      </root>
    </mxGraphModel>
  </diagram>
</mxfile>
